<mxfile host="app.diagrams.net" agent="Mozilla/5.0 (X11; Ubuntu; Linux x86_64; rv:141.0) Gecko/20100101 Firefox/141.0" version="28.0.7">
  <diagram name="Page-1" id="9o-9o-tDoMzQyHqzun2p">
    <mxGraphModel dx="815" dy="456" grid="1" gridSize="5" guides="1" tooltips="1" connect="1" arrows="1" fold="1" page="1" pageScale="1" pageWidth="850" pageHeight="1100" math="0" shadow="0">
      <root>
        <mxCell id="0" />
        <mxCell id="1" parent="0" />
        <mxCell id="1o3xAckalyLWF7qE3SYY-5" style="edgeStyle=orthogonalEdgeStyle;rounded=0;orthogonalLoop=1;jettySize=auto;html=1;exitX=0.5;exitY=1;exitDx=0;exitDy=0;entryX=0;entryY=0.5;entryDx=0;entryDy=0;curved=1;" edge="1" parent="1" source="1o3xAckalyLWF7qE3SYY-1" target="1o3xAckalyLWF7qE3SYY-4">
          <mxGeometry relative="1" as="geometry" />
        </mxCell>
        <mxCell id="1o3xAckalyLWF7qE3SYY-6" value="&lt;div&gt;start_emu=1 &amp;amp;&amp;nbsp;&lt;/div&gt;&lt;div&gt;counter=0&lt;/div&gt;" style="edgeLabel;html=1;align=center;verticalAlign=middle;resizable=0;points=[];fontColor=#0000FF;labelBackgroundColor=none;" vertex="1" connectable="0" parent="1o3xAckalyLWF7qE3SYY-5">
          <mxGeometry x="-0.2745" y="6" relative="1" as="geometry">
            <mxPoint x="-41" y="-1" as="offset" />
          </mxGeometry>
        </mxCell>
        <mxCell id="1o3xAckalyLWF7qE3SYY-8" style="edgeStyle=orthogonalEdgeStyle;rounded=0;orthogonalLoop=1;jettySize=auto;html=1;exitX=1;exitY=0.5;exitDx=0;exitDy=0;curved=1;" edge="1" parent="1" source="1o3xAckalyLWF7qE3SYY-1" target="1o3xAckalyLWF7qE3SYY-4">
          <mxGeometry relative="1" as="geometry" />
        </mxCell>
        <mxCell id="1o3xAckalyLWF7qE3SYY-1" value="Idle" style="ellipse;whiteSpace=wrap;html=1;" vertex="1" parent="1">
          <mxGeometry x="320" y="120" width="70" height="50" as="geometry" />
        </mxCell>
        <mxCell id="1o3xAckalyLWF7qE3SYY-2" style="edgeStyle=orthogonalEdgeStyle;rounded=0;orthogonalLoop=1;jettySize=auto;html=1;exitX=1;exitY=0;exitDx=0;exitDy=0;entryX=0;entryY=0;entryDx=0;entryDy=0;curved=1;" edge="1" parent="1" source="1o3xAckalyLWF7qE3SYY-1" target="1o3xAckalyLWF7qE3SYY-1">
          <mxGeometry relative="1" as="geometry">
            <Array as="points">
              <mxPoint x="380" y="90" />
              <mxPoint x="330" y="90" />
            </Array>
          </mxGeometry>
        </mxCell>
        <mxCell id="1o3xAckalyLWF7qE3SYY-3" value="start_emu=1 &amp;amp;&lt;div&gt;i_early_stop=1 &amp;amp;&amp;nbsp;&lt;/div&gt;&lt;div&gt;counter!=0&lt;/div&gt;" style="edgeLabel;html=1;align=center;verticalAlign=middle;resizable=0;points=[];fontColor=#0000FF;" vertex="1" connectable="0" parent="1o3xAckalyLWF7qE3SYY-2">
          <mxGeometry x="-0.0687" relative="1" as="geometry">
            <mxPoint x="-4" y="-25" as="offset" />
          </mxGeometry>
        </mxCell>
        <mxCell id="1o3xAckalyLWF7qE3SYY-12" style="edgeStyle=orthogonalEdgeStyle;rounded=0;orthogonalLoop=1;jettySize=auto;html=1;exitX=0.5;exitY=1;exitDx=0;exitDy=0;" edge="1" parent="1" source="1o3xAckalyLWF7qE3SYY-4" target="1o3xAckalyLWF7qE3SYY-11">
          <mxGeometry relative="1" as="geometry" />
        </mxCell>
        <mxCell id="1o3xAckalyLWF7qE3SYY-4" value="Wait Accu" style="ellipse;whiteSpace=wrap;html=1;" vertex="1" parent="1">
          <mxGeometry x="400" y="200" width="70" height="50" as="geometry" />
        </mxCell>
        <mxCell id="1o3xAckalyLWF7qE3SYY-7" value="&lt;div&gt;o_reset_classifier=1&lt;/div&gt;&lt;div&gt;o_reset_network=1&lt;/div&gt;&lt;div&gt;o_start_accu=1&lt;/div&gt;" style="text;html=1;align=center;verticalAlign=middle;whiteSpace=wrap;rounded=0;fontColor=#FF0000;fontSize=11;" vertex="1" parent="1">
          <mxGeometry x="295" y="230" width="60" height="30" as="geometry" />
        </mxCell>
        <mxCell id="1o3xAckalyLWF7qE3SYY-9" value="&lt;div&gt;start_emu=1 &amp;amp;&amp;nbsp;&lt;/div&gt;&lt;div&gt;counter!=0&lt;/div&gt;" style="edgeLabel;html=1;align=center;verticalAlign=middle;resizable=0;points=[];fontColor=#0000FF;labelBackgroundColor=none;" vertex="1" connectable="0" parent="1">
          <mxGeometry x="455" y="145" as="geometry" />
        </mxCell>
        <mxCell id="1o3xAckalyLWF7qE3SYY-10" value="&lt;div&gt;o_start_accu=1&lt;/div&gt;" style="text;html=1;align=center;verticalAlign=middle;whiteSpace=wrap;rounded=0;fontColor=#FF0000;fontSize=11;" vertex="1" parent="1">
          <mxGeometry x="440" y="150" width="60" height="30" as="geometry" />
        </mxCell>
        <mxCell id="1o3xAckalyLWF7qE3SYY-16" style="edgeStyle=orthogonalEdgeStyle;rounded=0;orthogonalLoop=1;jettySize=auto;html=1;exitX=0.5;exitY=1;exitDx=0;exitDy=0;curved=1;" edge="1" parent="1" source="1o3xAckalyLWF7qE3SYY-11" target="1o3xAckalyLWF7qE3SYY-15">
          <mxGeometry relative="1" as="geometry" />
        </mxCell>
        <mxCell id="1o3xAckalyLWF7qE3SYY-11" value="Run Accu" style="ellipse;whiteSpace=wrap;html=1;" vertex="1" parent="1">
          <mxGeometry x="400" y="300" width="70" height="50" as="geometry" />
        </mxCell>
        <mxCell id="1o3xAckalyLWF7qE3SYY-13" value="i_accu_busy=1" style="edgeLabel;html=1;align=center;verticalAlign=middle;resizable=0;points=[];fontColor=#0000FF;labelBackgroundColor=none;" vertex="1" connectable="0" parent="1">
          <mxGeometry x="475" y="260" as="geometry" />
        </mxCell>
        <mxCell id="1o3xAckalyLWF7qE3SYY-14" value="&lt;div&gt;o_start_accu=0&lt;/div&gt;" style="text;html=1;align=center;verticalAlign=middle;whiteSpace=wrap;rounded=0;fontColor=#FF0000;fontSize=11;" vertex="1" parent="1">
          <mxGeometry x="450" y="265" width="60" height="15" as="geometry" />
        </mxCell>
        <mxCell id="1o3xAckalyLWF7qE3SYY-20" style="edgeStyle=orthogonalEdgeStyle;rounded=0;orthogonalLoop=1;jettySize=auto;html=1;exitX=0;exitY=0.5;exitDx=0;exitDy=0;" edge="1" parent="1" source="1o3xAckalyLWF7qE3SYY-15" target="1o3xAckalyLWF7qE3SYY-19">
          <mxGeometry relative="1" as="geometry" />
        </mxCell>
        <mxCell id="1o3xAckalyLWF7qE3SYY-15" value="Wait HL" style="ellipse;whiteSpace=wrap;html=1;" vertex="1" parent="1">
          <mxGeometry x="400" y="390" width="70" height="50" as="geometry" />
        </mxCell>
        <mxCell id="1o3xAckalyLWF7qE3SYY-17" value="i_accu_busy=0" style="edgeLabel;html=1;align=center;verticalAlign=middle;resizable=0;points=[];fontColor=#0000FF;labelBackgroundColor=none;" vertex="1" connectable="0" parent="1">
          <mxGeometry x="475" y="360" as="geometry" />
        </mxCell>
        <mxCell id="1o3xAckalyLWF7qE3SYY-18" value="o_start_hl=1" style="text;html=1;align=center;verticalAlign=middle;whiteSpace=wrap;rounded=0;fontColor=#FF0000;fontSize=11;" vertex="1" parent="1">
          <mxGeometry x="445" y="370" width="60" height="15" as="geometry" />
        </mxCell>
        <mxCell id="1o3xAckalyLWF7qE3SYY-24" style="edgeStyle=orthogonalEdgeStyle;rounded=0;orthogonalLoop=1;jettySize=auto;html=1;exitX=0.5;exitY=0;exitDx=0;exitDy=0;" edge="1" parent="1" source="1o3xAckalyLWF7qE3SYY-19" target="1o3xAckalyLWF7qE3SYY-23">
          <mxGeometry relative="1" as="geometry" />
        </mxCell>
        <mxCell id="1o3xAckalyLWF7qE3SYY-19" value="Wait HL" style="ellipse;whiteSpace=wrap;html=1;" vertex="1" parent="1">
          <mxGeometry x="185" y="390" width="70" height="50" as="geometry" />
        </mxCell>
        <mxCell id="1o3xAckalyLWF7qE3SYY-21" value="i_hl_busy=1" style="edgeLabel;html=1;align=center;verticalAlign=middle;resizable=0;points=[];fontColor=#0000FF;labelBackgroundColor=none;" vertex="1" connectable="0" parent="1">
          <mxGeometry x="335" y="400" as="geometry" />
        </mxCell>
        <mxCell id="1o3xAckalyLWF7qE3SYY-22" value="o_start_hl=0" style="text;html=1;align=center;verticalAlign=middle;whiteSpace=wrap;rounded=0;fontColor=#FF0000;fontSize=11;" vertex="1" parent="1">
          <mxGeometry x="305" y="420" width="60" height="15" as="geometry" />
        </mxCell>
        <mxCell id="1o3xAckalyLWF7qE3SYY-29" style="edgeStyle=orthogonalEdgeStyle;rounded=0;orthogonalLoop=1;jettySize=auto;html=1;exitX=0.5;exitY=0;exitDx=0;exitDy=0;entryX=0.5;entryY=1;entryDx=0;entryDy=0;" edge="1" parent="1" source="1o3xAckalyLWF7qE3SYY-23" target="1o3xAckalyLWF7qE3SYY-28">
          <mxGeometry relative="1" as="geometry" />
        </mxCell>
        <mxCell id="1o3xAckalyLWF7qE3SYY-23" value="Wait OL" style="ellipse;whiteSpace=wrap;html=1;" vertex="1" parent="1">
          <mxGeometry x="185" y="300" width="70" height="50" as="geometry" />
        </mxCell>
        <mxCell id="1o3xAckalyLWF7qE3SYY-25" value="i_hl_busy=0" style="edgeLabel;html=1;align=center;verticalAlign=middle;resizable=0;points=[];fontColor=#0000FF;labelBackgroundColor=none;" vertex="1" connectable="0" parent="1">
          <mxGeometry x="180" y="360" as="geometry" />
        </mxCell>
        <mxCell id="1o3xAckalyLWF7qE3SYY-26" value="o_start_ol=1" style="text;html=1;align=center;verticalAlign=middle;whiteSpace=wrap;rounded=0;fontColor=#FF0000;fontSize=11;" vertex="1" parent="1">
          <mxGeometry x="150" y="365" width="60" height="15" as="geometry" />
        </mxCell>
        <mxCell id="1o3xAckalyLWF7qE3SYY-32" style="edgeStyle=orthogonalEdgeStyle;rounded=0;orthogonalLoop=1;jettySize=auto;html=1;exitX=0.5;exitY=0;exitDx=0;exitDy=0;entryX=0;entryY=0.5;entryDx=0;entryDy=0;curved=1;" edge="1" parent="1" source="1o3xAckalyLWF7qE3SYY-28" target="1o3xAckalyLWF7qE3SYY-1">
          <mxGeometry relative="1" as="geometry" />
        </mxCell>
        <mxCell id="1o3xAckalyLWF7qE3SYY-28" value="Run OL" style="ellipse;whiteSpace=wrap;html=1;" vertex="1" parent="1">
          <mxGeometry x="185" y="200" width="70" height="50" as="geometry" />
        </mxCell>
        <mxCell id="1o3xAckalyLWF7qE3SYY-30" value="i_ol_busy=1" style="edgeLabel;html=1;align=center;verticalAlign=middle;resizable=0;points=[];fontColor=#0000FF;labelBackgroundColor=none;" vertex="1" connectable="0" parent="1">
          <mxGeometry x="185" y="265" as="geometry" />
        </mxCell>
        <mxCell id="1o3xAckalyLWF7qE3SYY-31" value="o_start_ol=0" style="text;html=1;align=center;verticalAlign=middle;whiteSpace=wrap;rounded=0;fontColor=#FF0000;fontSize=11;" vertex="1" parent="1">
          <mxGeometry x="155" y="275" width="60" height="15" as="geometry" />
        </mxCell>
        <mxCell id="1o3xAckalyLWF7qE3SYY-33" value="i_ol_busy=0" style="edgeLabel;html=1;align=center;verticalAlign=middle;resizable=0;points=[];fontColor=#0000FF;labelBackgroundColor=none;" vertex="1" connectable="0" parent="1">
          <mxGeometry x="210" y="150" as="geometry" />
        </mxCell>
      </root>
    </mxGraphModel>
  </diagram>
</mxfile>
